<svg width="85" height="65" viewBox="0 0 85 65" fill="none" xmlns="http://www.w3.org/2000/svg">
<mask id="path-1-outside-1_1171_14" maskUnits="userSpaceOnUse" x="-0.169922" y="0.689575" width="85" height="65" fill="black">
<rect fill="white" x="-0.169922" y="0.689575" width="85" height="65"/>
<path d="M26.1859 17.5694C26.0478 17.8349 25.9846 18.1331 26.0031 18.4318C26.0216 18.7305 26.1211 19.0186 26.291 19.265L41.064 40.6037C41.215 40.8218 41.4167 41 41.6517 41.123C41.8866 41.2461 42.148 41.3104 42.4132 41.3104C42.6785 41.3104 42.9398 41.2461 43.1748 41.123C43.4098 41 43.6114 40.8218 43.7625 40.6037L58.5355 19.265C58.7071 19.019 58.8078 18.7306 58.8268 18.4313C58.8458 18.132 58.7822 17.8332 58.643 17.5675C58.5038 17.3018 58.2944 17.0795 58.0375 16.9247C57.7806 16.7698 57.4861 16.6885 57.1862 16.6896L27.6402 16.6896C27.3406 16.6895 27.0467 16.7715 26.7903 16.9266C26.534 17.0817 26.325 17.304 26.1859 17.5694ZM54.0527 19.9725L42.4132 36.7858L30.7738 19.9725H54.0527Z"/>
</mask>
<path d="M26.1859 17.5694L12.0126 10.1454L12.0019 10.1658L11.9913 10.1862L26.1859 17.5694ZM26.291 19.265L13.1163 28.3439L13.1261 28.3582L13.1359 28.3724L26.291 19.265ZM41.064 40.6037L27.9089 49.7111L27.912 49.7155L41.064 40.6037ZM43.7625 40.6037L56.9145 49.7155L56.9176 49.7111L43.7625 40.6037ZM58.5355 19.265L45.4131 10.1106L45.3967 10.1341L45.3804 10.1576L58.5355 19.265ZM57.1862 16.6896V32.6896H57.2142L57.2422 32.6895L57.1862 16.6896ZM27.6402 16.6896L27.6376 32.6896H27.6402V16.6896ZM54.0527 19.9725L67.2079 29.0796L84.589 3.97247L54.0527 3.97247V19.9725ZM42.4132 36.7858L29.258 45.8928L42.4132 64.8957L55.5685 45.8928L42.4132 36.7858ZM30.7738 19.9725V3.97247L0.237419 3.97247L17.6185 29.0796L30.7738 19.9725ZM11.9913 10.1862C10.5123 13.0296 9.83555 16.2221 10.0337 19.4212L41.9725 17.4424C42.1337 20.044 41.5833 22.6403 40.3806 24.9526L11.9913 10.1862ZM10.0337 19.4212C10.2319 22.6201 11.2975 25.7047 13.1163 28.3439L39.4657 10.1861C40.9447 12.3324 41.8113 14.8409 41.9725 17.4424L10.0337 19.4212ZM13.1359 28.3724L27.9089 49.7111L54.219 31.4964L39.4461 10.1576L13.1359 28.3724ZM27.912 49.7155C29.5355 52.059 31.7029 53.9741 34.2283 55.2968L49.075 26.9493C51.1305 28.0259 52.8945 29.5845 54.216 31.4919L27.912 49.7155ZM34.2283 55.2968C36.7539 56.6195 39.5623 57.3104 42.4132 57.3104V25.3104C44.7336 25.3104 47.0194 25.8728 49.075 26.9493L34.2283 55.2968ZM42.4132 57.3104C45.2641 57.3104 48.0725 56.6195 50.5981 55.2968L35.7515 26.9493C37.807 25.8727 40.0929 25.3104 42.4132 25.3104V57.3104ZM50.5981 55.2968C53.1236 53.9741 55.2909 52.059 56.9145 49.7155L30.6105 31.4919C31.9319 29.5846 33.6959 28.0259 35.7515 26.9493L50.5981 55.2968ZM56.9176 49.7111L71.6905 28.3724L45.3804 10.1576L30.6074 31.4964L56.9176 49.7111ZM71.6578 28.4194C73.5055 25.7709 74.5906 22.6659 74.7948 19.443L42.8588 17.4197C43.0251 14.7954 43.9086 12.2672 45.4131 10.1106L71.6578 28.4194ZM74.7948 19.443C74.999 16.2201 74.3144 13.003 72.8158 10.1424L44.4702 24.9926C43.2499 22.6634 42.6926 20.0439 42.8588 17.4197L74.7948 19.443ZM72.8158 10.1424C71.3171 7.28181 69.0619 4.88759 66.296 3.22074L49.779 30.6286C47.5268 29.2713 45.6905 27.3219 44.4702 24.9926L72.8158 10.1424ZM66.296 3.22074C63.53 1.55389 60.3596 0.678385 57.1302 0.689683L57.2422 32.6895C54.6127 32.6987 52.0311 31.9858 49.779 30.6286L66.296 3.22074ZM57.1862 0.689586L27.6402 0.689586V32.6896H57.1862V0.689586ZM27.6429 0.689586C24.4227 0.689054 21.2637 1.56995 18.5085 3.23679L35.0722 30.6164C32.8297 31.973 30.2586 32.69 27.6376 32.6896L27.6429 0.689586ZM18.5085 3.23679C15.7532 4.90363 13.5067 7.29283 12.0126 10.1454L40.3593 24.9934C39.1432 27.3151 37.3148 29.2597 35.0722 30.6164L18.5085 3.23679ZM40.8974 10.8654L29.258 27.6787L55.5685 45.8928L67.2079 29.0796L40.8974 10.8654ZM55.5685 27.6787L43.929 10.8654L17.6185 29.0796L29.258 45.8928L55.5685 27.6787ZM30.7738 35.9725H54.0527V3.97247L30.7738 3.97247V35.9725Z" fill="#FF6464" mask="url(#path-1-outside-1_1171_14)"/>
</svg>
